#!OML:ASF Y:\EmotionMaleHayes\Project 1\Capture day 1\Session 1\Male1.ASF
:FULLY-SPECIFIED
:DEGREES
826
root 4.71016 12.4596 -0.235556 -220.849 86.9076 -228.878
lowerback 41.0904 2.03168 -3.06434
upperback 11.7479 3.09783 0.99378
thorax -6.71979 2.07075 1.33054
lowerneck -27.5432 -0.186757 1.09537
upperneck 24.8834 -0.24204 -1.19869
head 12.8828 -0.133507 -0.684684
rclavicle 6.12257e-014 5.04913e-014
rhumerus -19.3364 -41.5962 -55.7587
rradius 43.1693
rwrist -26.4204
rhand -31.8467 -30.1193
rfingers 7.12502
rthumb -5.10067 -60.0379
lclavicle 6.12257e-014 5.04913e-014
lhumerus -10.0952 18.1467 61.2584
lradius 46.9309
lwrist 31.6015
lhand -40.6792 -40.4284
lfingers 7.12502
lthumb -13.6225 -10.8941
rfemur -68.4286 -12.0826 13.4744
rtibia 74.6546
rfoot -207.462 4.73173
rtoes -14.0577
lfemur -65.1386 15.196 -20.0839
ltibia 80.7213
lfoot -205.375 17.0464
ltoes -14.7369
827
root 4.71259 12.5725 -0.23648 -222.485 86.8724 -230.587
lowerback 40.6734 2.01264 -3.01202
upperback 11.5887 3.05548 0.895134
thorax -6.76357 2.0422 1.22478
lowerneck -27.4418 -0.293431 1.00269
upperneck 24.887 -0.432649 -0.935052
head 12.8629 -0.186883 -0.60174
rclavicle -3.18055e-015 4.77083e-015
rhumerus -18.7853 -40.63 -57.5387
rradius 42.6215
rwrist -26.525
rhand -31.7717 -29.1861
rfingers 7.12502
rthumb -5.02829 -59.1064
lclavicle -3.18055e-015 4.77083e-015
lhumerus -9.97742 16.9288 62.7487
lradius 46.4785
lwrist 31.8225
lhand -39.9186 -38.5786
lfingers 7.12502
lthumb -12.8893 -8.99663
rfemur -67.5851 -11.8834 13.3223
rtibia 75.9225
rfoot -207.675 4.70271
rtoes -12.4882
lfemur -64.1534 15.1002 -20.178
ltibia 82.7555
lfoot -202.432 29.2842
ltoes -14.4908
828
root 4.71925 12.6946 -0.229555 -222.646 86.5066 -230.605
lowerback 40.5113 1.93278 -3.14504
upperback 11.4917 2.89651 0.887426
thorax -6.81862 1.9634 1.35
lowerneck -27.6089 -0.290412 1.07133
upperneck 25.083 -0.437733 -0.993536
head 12.9743 -0.189125 -0.638658
rclavicle -2.78299e-014 -3.18055e-014
rhumerus -17.8852 -39.9347 -59.2828
rradius 41.7467
rwrist -26.3385
rhand -31.6845 -28.7442
rfingers 7.12502
rthumb -4.9441 -58.6665
lclavicle -2.78299e-014 -3.18055e-014
lhumerus -9.85267 15.9241 64.3825
lradius 46.0275
lwrist 32.0767
lhand -39.048 -36.8896
lfingers 7.12502
lthumb -12.0499 -7.2565
rfemur -66.3212 -11.9782 12.9806
rtibia 77.3979
rfoot -207.948 4.9635
rtoes -12.5016
lfemur -62.7804 14.6833 -20.3466
ltibia 84.9139
lfoot -198.686 41.5198
ltoes -13.9838
829
root 4.72396 12.817 -0.222159 -220.876 86.0645 -228.715
lowerback 40.3144 1.77531 -3.25658
upperback 11.3955 2.66037 0.94741
thorax -6.86131 1.84697 1.56744
lowerneck -27.7448 -0.236633 1.07552
upperneck 25.2892 -0.323789 -1.10854
head 13.0861 -0.154024 -0.664655
rclavicle -7.95139e-016 2.70347e-014
rhumerus -17.0414 -39.013 -60.9122
rradius 40.9698
rwrist -26.0106
rhand -31.5477 -28.9436
rfingers 7.12502
rthumb -4.81197 -58.8689
lclavicle -7.95139e-016 2.70347e-014
lhumerus -9.804 15.3292 66.0102
lradius 45.4626
lwrist 31.8751
lhand -37.6826 -35.0363
lfingers 7.12502
lthumb -10.7331 -5.3305
rfemur -64.9886 -12.2903 12.6778
rtibia 79.1292
rfoot -208.084 5.43867
rtoes -13.5453
lfemur -61.504 14.1049 -20.4733
ltibia 86.845
lfoot -192.371 53.5343
ltoes -12.456
830
root 4.72254 12.931 -0.226062 -220.583 85.8484 -228.502
lowerback 39.9 1.62237 -3.25592
upperback 11.2625 2.44789 0.891072
thorax -6.869 1.73921 1.59983
lowerneck -27.8029 -0.247385 0.912133
upperneck 25.3948 -0.338666 -0.881046
head 13.1415 -0.142837 -0.551921
rclavicle 3.18055e-015 -5.1684e-015
rhumerus -16.6952 -37.3475 -62.5551
rradius 40.9731
rwrist -26.0106
rhand -31.5964 -29.6922
rfingers 7.12502
rthumb -4.85905 -59.6165
lclavicle 3.18055e-015 -5.1684e-015
lhumerus -9.90617 14.9087 67.4111
lradius 45.1065
lwrist 31.3275
lhand -36.0394 -32.6544
lfingers 7.12502
lthumb -9.14786 -2.87276
rfemur -64.0164 -12.4519 12.4637
rtibia 80.9343
rfoot -205.959 -5.96643
rtoes -12.7025
lfemur -60.5733 13.6968 -20.6163
ltibia 88.3807
lfoot -181.522 64.8497
ltoes -12.0278
831
root 4.71951 13.0431 -0.233882 -223.443 85.7521 -231.498
lowerback 39.4386 1.59887 -3.30246
upperback 11.1111 2.35526 0.703947
thorax -6.88 1.688 1.47153
lowerneck -28.0957 -0.272158 1.03576
upperneck 25.7788 -0.446087 -0.810191
head 13.3557 -0.162799 -0.567953
rclavicle 1.90833e-014 -4.6118e-014
rhumerus -16.6774 -35.9367 -64.1085
rradius 41.2481
rwrist -25.4929
rhand -31.2981 -30.7628
rfingers 7.12502
rthumb -4.57102 -60.6935
lclavicle 1.90833e-014 -4.6118e-014
lhumerus -9.98947 14.3626 68.7045
lradius 44.8857
lwrist 30.4916
lhand -34.2077 -30.1666
lfingers 7.12502
lthumb -7.38004 -0.315322
rfemur -63.2049 -12.3852 12.1679
rtibia 82.8074
rfoot -203.585 -17.5366
rtoes -11.2059
lfemur -59.6667 13.4827 -20.8744
ltibia 89.4115
lfoot -157.93 74.4718
ltoes -12.441
832
root 4.71916 13.1594 -0.236483 -225.946 85.6485 -234.102
lowerback 38.9762 1.57819 -3.41861
upperback 10.9347 2.24627 0.607787
thorax -6.92123 1.62472 1.48131
lowerneck -28.2121 -0.222763 1.14322
upperneck 26.1819 -0.371938 -0.935534
head 13.5468 -0.132971 -0.623475
rclavicle -1.59028e-015 1.98785e-015
rhumerus -16.4714 -34.8879 -65.4367
rradius 40.9422
rwrist -24.1424
rhand -29.8329 -30.8872
rfingers 7.12502
rthumb -3.15605 -60.8436
lclavicle -1.59028e-015 1.98785e-015
lhumerus -10.1149 14.1379 70.0708
lradius 44.4535
lwrist 29.1701
lhand -32.1557 -28.0934
lfingers 7.12502
lthumb -5.3991 1.81786
rfemur -62.3434 -12.3218 11.9579
rtibia 84.6553
rfoot -201.297 -28.9035
rtoes -11.5249
lfemur -58.7077 13.2866 -21.0606
ltibia 89.8154
lfoot -105.752 77.3872
ltoes -12.4717
833
root 4.71994 13.2773 -0.234651 -226.71 85.5336 -234.907
lowerback 38.5886 1.50347 -3.51964
upperback 10.7458 2.08773 0.61588
thorax -7.00062 1.53684 1.61027
lowerneck -28.0184 -0.163577 1.00244
upperneck 26.2839 -0.220597 -0.91958
head 13.5537 -0.0774033 -0.563803
rclavicle -2.14687e-014 -2.10712e-014
rhumerus -16.2068 -33.6334 -66.6738
rradius 40.6334
rwrist -23.0064
rhand -28.0567 -30.1132
rfingers 7.12502
rthumb -1.44066 -60.0881
lclavicle -2.14687e-014 -2.10712e-014
lhumerus -10.3637 14.0958 71.4457
lradius 44.0507
lwrist 27.6434
lhand -30.0118 -25.8498
lfingers 7.12502
lthumb -3.32889 4.10396
rfemur -61.4295 -12.2687 11.862
rtibia 86.3741
rfoot -198.912 -40.1534
rtoes -12.7398
lfemur -57.7097 13.0375 -21.1106
ltibia 89.5403
lfoot -67.2323 70.0345
ltoes -11.7949
834
root 4.72227 13.3897 -0.229133 -227.103 85.5604 -235.282
lowerback 38.2043 1.50422 -3.52182
upperback 10.6284 2.06806 0.612578
thorax -7.00464 1.51743 1.62359
lowerneck -28.1549 -0.167353 0.97652
upperneck 26.4824 -0.227909 -0.867991
head 13.6643 -0.0736871 -0.541631
rclavicle 7.95139e-015 3.18055e-014
rhumerus -16.2044 -32.3957 -67.9022
rradius 40.7888
rwrist -22.3136
rhand -27.0566 -29.5323
rfingers 7.12502
rthumb -0.474766 -59.5115
lclavicle 7.95139e-015 3.18055e-014
lhumerus -10.5517 13.6813 72.7103
lradius 43.8419
lwrist 26.311
lhand -27.7376 -23.1118
lfingers 7.12502
lthumb -1.13251 6.86489
rfemur -60.4877 -11.9687 11.8912
rtibia 87.9314
rfoot -194.739 -51.3506
rtoes -12.6744
lfemur -56.6789 12.913 -20.9617
ltibia 88.6262
lfoot -51.734 59.1391
ltoes -11.2057
835
root 4.7288 13.4929 -0.222072 -226.193 85.8631 -234.346
lowerback 37.6536 1.53062 -3.33804
upperback 10.5832 2.15896 0.640445
thorax -6.8765 1.54902 1.53728
lowerneck -28.3878 -0.195371 1.00742
upperneck 26.7388 -0.290875 -0.831901
head 13.8183 -0.089765 -0.546564
rclavicle 3.69739e-014 -4.77083e-015
rhumerus -16.389 -30.8857 -69.1235
rradius 41.0546
rwrist -22.1336
rhand -26.5891 -28.5836
rfingers 7.12502
rthumb -0.0232436 -58.5633
lclavicle 3.69739e-014 -4.77083e-015
lhumerus -10.6357 13.0663 73.9162
lradius 43.5554
lwrist 25.2266
lhand -25.6649 -21.1273
lfingers 7.12502
lthumb 0.869369 8.85063
rfemur -59.5876 -11.4781 12.245
rtibia 89.1107
rfoot -187.251 -62.2809
rtoes -11.7225
lfemur -55.7564 12.9988 -20.4603
ltibia 87.2467
lfoot -43.7563 47.4655
ltoes -10.1577
836
root 4.73821 13.5961 -0.217242 -225.441 85.9827 -233.557
lowerback 37.1548 1.50565 -3.19789
upperback 10.5058 2.16288 0.621347
thorax -6.79228 1.54182 1.45498
lowerneck -28.4259 -0.208377 0.986906
upperneck 26.8901 -0.33355 -0.718474
head 13.8902 -0.0910546 -0.506548
rclavicle -2.62396e-014 -5.96354e-015
rhumerus -16.5267 -29.4215 -70.3584
rradius 41.2219
rwrist -21.9908
rhand -26.0702 -28.3979
rfingers 7.12502
rthumb 0.477947 -58.3771
lclavicle -2.62396e-014 -5.96354e-015
lhumerus -10.7389 12.3706 75.0872
lradius 43.2013
lwrist 24.3169
lhand -23.7972 -20.5981
lfingers 7.12502
lthumb 2.67322 9.36493
rfemur -58.6354 -11.2524 12.36
rtibia 89.7831
rfoot -171.048 -72.4259
rtoes -10.4938
lfemur -54.7625 12.9642 -20.1421
ltibia 85.4786
lfoot -38.7442 35.4122
ltoes -8.58687
837
root 4.74994 13.7061 -0.20945 -225.623 85.8375 -233.653
lowerback 36.7908 1.48216 -3.24942
upperback 10.3943 2.09694 0.584462
thorax -6.78777 1.50317 1.47521
lowerneck -28.4897 -0.234906 0.818187
upperneck 27.0668 -0.380888 -0.448604
head 13.9793 -0.0864051 -0.379551
rclavicle -7.15625e-015 2.10712e-014
rhumerus -16.5865 -28.4007 -71.4168
rradius 41.2233
rwrist -21.0192
rhand -24.6927 -29.0695
rfingers 7.12502
rthumb 1.80837 -59.0416
lclavicle -7.15625e-015 2.10712e-014
lhumerus -10.8911 11.6163 76.2265
lradius 42.879
lwrist 23.5704
lhand -22.0514 -20.4561
lfingers 7.12502
lthumb 4.35911 9.47901
rfemur -57.463 -11.1967 12.1403
rtibia 89.8618
rfoot -128.429 -78.7035
rtoes -9.2765
lfemur -53.5978 12.8046 -20.1122
ltibia 83.4074
lfoot -34.8493 23.3166
ltoes -8.77482
838
root 4.75754 13.8233 -0.194747 -223.031 85.588 -230.82
lowerback 36.6867 1.36079 -3.23363
upperback 10.2434 1.93847 0.612839
thorax -6.91261 1.42418 1.55567
lowerneck -28.5202 -0.242204 0.682435
upperneck 27.2982 -0.37499 -0.290625
head 14.0857 -0.071227 -0.292041
rclavicle 9.93923e-015 2.10712e-014
rhumerus -16.8861 -27.1535 -72.2988
rradius 41.3765
rwrist -19.9757
rhand -22.9849 -29.133
rfingers 7.12502
rthumb 3.45769 -59.0847
lclavicle 9.93923e-015 2.10712e-014
lhumerus -11.1691 10.8007 77.2923
lradius 42.654
lwrist 23.1826
lhand -20.4478 -19.5014
lfingers 7.12502
lthumb 5.90753 10.3962
rfemur -55.9509 -11.2487 12.0023
rtibia 89.2334
rfoot -75.8073 -75.4097
rtoes -9.57276
lfemur -52.3074 12.4485 -19.9715
ltibia 81.3775
lfoot -31.8288 10.9295
ltoes -8.33763
839
root 4.76031 13.9316 -0.193197 -225.002 85.7321 -232.803
lowerback 36.2575 1.40376 -3.19047
upperback 10.0604 1.96839 0.536931
thorax -6.96397 1.42656 1.44987
lowerneck -28.44 -0.219865 0.761215
upperneck 27.4733 -0.334706 -0.393157
head 14.1449 -0.0574813 -0.338452
rclavicle -2.38542e-015 -1.94809e-014
rhumerus -17.2527 -25.728 -73.222
rradius 41.6499
rwrist -19.4343
rhand -21.8014 -29.288
rfingers 7.12502
rthumb 4.60052 -59.218
lclavicle -2.38542e-015 -1.94809e-014
lhumerus -11.5618 9.80502 78.2884
lradius 42.5859
lwrist 23.1437
lhand -18.9481 -18.1429
lfingers 7.12502
lthumb 7.35529 11.7092
rfemur -55.1104 -10.8337 11.9565
rtibia 88.1389
rfoot -53.2104 -66.0816
rtoes -9.8304
lfemur -51.3794 12.4953 -19.896
ltibia 79.7585
lfoot -29.1563 -1.67516
ltoes -6.13715
840
root 4.77936 14.043 -0.19112 -228.321 85.822 -235.936
lowerback 35.904 1.47899 -3.20257
upperback 9.97652 2.03026 0.407138
thorax -6.93013 1.44998 1.30431
lowerneck -28.3352 -0.245456 0.83958
upperneck 27.5155 -0.40736 -0.377853
head 14.1412 -0.0758563 -0.359387
rclavicle -1.03368e-014 -1.74931e-014
rhumerus -17.3608 -24.6084 -74.223
rradius 41.6115
rwrist -18.9692
rhand -20.989 -29.5551
rfingers 7.12502
rthumb 5.38498 -59.4667
lclavicle -1.03368e-014 -1.74931e-014
lhumerus -11.8178 8.82153 79.2928
lradius 42.4424
lwrist 22.988
lhand -17.8743 -17.2104
lfingers 7.12502
lthumb 8.39165 12.6029
rfemur -53.9753 -10.3787 11.7905
rtibia 86.6687
rfoot -44.088 -54.9959
rtoes -8.67172
lfemur -50.0466 12.5467 -19.813
ltibia 78.1287
lfoot -29.1445 -1.84856
ltoes -4.63386
